#Comment line ignore any data following # character 
#Hierarchical Translation and Rotation (.htr) file 
[Header]	
#Header keywords are followed by a single value 
FileType HTR		#Single word string
DataType HTRS		#Translation followed by rotation and scale data
FileVersion 1		#integer
NumSegments 64		#integer
NumFrames 3		#integer
DataFrameRate 30		#integer, data frame rate in this file
EulerRotationOrder ZYX
CalibrationUnits mm
RotationUnits Degrees
GlobalAxisofGravity Y
BoneLengthAxis Y
ScaleFactor 1.00
[SegmentNames&Hierarchy]
#CHILD	PARENT
Pinger_Root GLOBAL
Pelvis Pinger_Root
L_Hip Pelvis
R_Hip Pelvis
Rear_Leg01 Pelvis
Spine1 Pelvis
L_Leg01 L_Hip
L_Leg02 L_Leg01
L_Leg03 L_Leg02
L_Foot L_Leg03
L_Toe1_01 L_Foot
L_Toe2_01 L_Foot
L_Toe3_01 L_Foot
planeAlignerLeft L_Foot
L_Toe1_02 L_Toe1_01
L_Toe1_03 L_Toe1_02
L_Toe2_02 L_Toe2_01
L_Toe2_03 L_Toe2_02
L_Toe3_02 L_Toe3_01
L_Toe3_03 L_Toe3_02
planeLockWeightLeft planeAlignerLeft
R_Leg01 R_Hip
R_Leg02 R_Leg01
R_Leg03 R_Leg02
R_Foot R_Leg03
planeAlignerRight R_Foot
R_Toe1_01 R_Foot
R_Toe2_01 R_Foot
R_Toe3_01 R_Foot
planeLockWeightRight planeAlignerRight
R_Toe1_02 R_Toe1_01
R_Toe1_03 R_Toe1_02
R_Toe2_02 R_Toe2_01
R_Toe2_03 R_Toe2_02
R_Toe3_02 R_Toe3_01
R_Toe3_03 R_Toe3_02
Rear_Leg02 Rear_Leg01
Rear_Leg03 Rear_Leg02
Rear_Leg04 Rear_Leg03
Rear_Foot Rear_Leg04
planeAlignerCenter Rear_Foot
Rear_Toe1_01 Rear_Foot
Rear_Toe2_01 Rear_Foot
Rear_Toe3_01 Rear_Foot
planeLockWeightCenter planeAlignerCenter
Rear_Toe1_02 Rear_Toe1_01
Rear_Toe1_03 Rear_Toe1_02
Rear_Toe2_02 Rear_Toe2_01
Rear_Toe2_03 Rear_Toe2_02
Rear_Toe3_02 Rear_Toe3_01
Rear_Toe3_03 Rear_Toe3_02
Back_Bone Spine1
Head Spine1
Motor_Bone Back_Bone
Ping_Mechanism Back_Bone
BN_LookIK Head
bottomMouth Head
L_Mouth01 Head
L_mouthFront Head
mouthGun Head
R_Mouth01 Head
R_mouthFront Head
TopMouth Head
weapon_bone Head
[BasePosition]
#SegmentName Tx, Ty, Tz, Rx, Ry, Rz, BoneLength
Pinger_Root 0.000000 0.000000 0.000000 -90.000000 0.000000 0.000000 10.000000 
Pelvis 0.000000 0.000000 0.000000 0.000000 0.000000 0.000000 10.000000 
L_Hip 0.000000 0.000000 0.000000 0.000000 0.000000 0.000000 10.000000 
R_Hip 0.000000 0.000000 0.000000 0.000000 0.000000 0.000000 10.000000 
Rear_Leg01 0.000000 0.000000 0.000000 0.000000 0.000000 0.000000 10.000000 
Spine1 0.000000 0.000000 0.000000 0.000000 0.000000 0.000000 10.000000 
L_Leg01 0.000000 0.000000 0.000000 0.000000 0.000000 0.000000 10.000000 
L_Leg02 0.000000 0.000000 0.000000 0.000000 0.000000 0.000000 10.000000 
L_Leg03 0.000000 0.000000 0.000000 0.000000 0.000000 0.000000 10.000000 
L_Foot 0.000000 0.000000 0.000000 0.000000 0.000000 0.000000 10.000000 
L_Toe1_01 0.000000 0.000000 0.000000 0.000000 0.000000 0.000000 10.000000 
L_Toe2_01 0.000000 0.000000 0.000000 0.000000 0.000000 0.000000 10.000000 
L_Toe3_01 0.000000 0.000000 0.000000 0.000000 0.000000 0.000000 10.000000 
planeAlignerLeft 0.000000 0.000000 0.000000 0.000000 0.000000 0.000000 10.000000 
L_Toe1_02 0.000000 0.000000 0.000000 0.000000 0.000000 0.000000 10.000000 
L_Toe1_03 0.000000 0.000000 0.000000 0.000000 0.000000 0.000000 10.000000 
L_Toe2_02 0.000000 0.000000 0.000000 0.000000 0.000000 0.000000 10.000000 
L_Toe2_03 0.000000 0.000000 0.000000 0.000000 0.000000 0.000000 10.000000 
L_Toe3_02 0.000000 0.000000 0.000000 0.000000 0.000000 0.000000 10.000000 
L_Toe3_03 0.000000 0.000000 0.000000 0.000000 0.000000 0.000000 10.000000 
planeLockWeightLeft 0.000000 0.000000 0.000000 0.000000 0.000000 0.000000 10.000000 
R_Leg01 0.000000 0.000000 0.000000 0.000000 0.000000 0.000000 10.000000 
R_Leg02 0.000000 0.000000 0.000000 0.000000 0.000000 0.000000 10.000000 
R_Leg03 0.000000 0.000000 0.000000 0.000000 0.000000 0.000000 10.000000 
R_Foot 0.000000 0.000000 0.000000 0.000000 0.000000 0.000000 10.000000 
planeAlignerRight 0.000000 0.000000 0.000000 0.000000 0.000000 0.000000 10.000000 
R_Toe1_01 0.000000 0.000000 0.000000 0.000000 0.000000 0.000000 10.000000 
R_Toe2_01 0.000000 0.000000 0.000000 0.000000 0.000000 0.000000 10.000000 
R_Toe3_01 0.000000 0.000000 0.000000 0.000000 0.000000 0.000000 10.000000 
planeLockWeightRight 0.000000 0.000000 0.000000 0.000000 0.000000 0.000000 10.000000 
R_Toe1_02 0.000000 0.000000 0.000000 0.000000 0.000000 0.000000 10.000000 
R_Toe1_03 0.000000 0.000000 0.000000 0.000000 0.000000 0.000000 10.000000 
R_Toe2_02 0.000000 0.000000 0.000000 0.000000 0.000000 0.000000 10.000000 
R_Toe2_03 0.000000 0.000000 0.000000 0.000000 0.000000 0.000000 10.000000 
R_Toe3_02 0.000000 0.000000 0.000000 0.000000 0.000000 0.000000 10.000000 
R_Toe3_03 0.000000 0.000000 0.000000 0.000000 0.000000 0.000000 10.000000 
Rear_Leg02 0.000000 0.000000 0.000000 0.000000 0.000000 0.000000 10.000000 
Rear_Leg03 0.000000 0.000000 0.000000 0.000000 0.000000 0.000000 10.000000 
Rear_Leg04 0.000000 0.000000 0.000000 0.000000 0.000000 0.000000 10.000000 
Rear_Foot 0.000000 0.000000 0.000000 0.000000 0.000000 0.000000 10.000000 
planeAlignerCenter 0.000000 0.000000 0.000000 0.000000 0.000000 0.000000 10.000000 
Rear_Toe1_01 0.000000 0.000000 0.000000 0.000000 0.000000 0.000000 10.000000 
Rear_Toe2_01 0.000000 0.000000 0.000000 0.000000 0.000000 0.000000 10.000000 
Rear_Toe3_01 0.000000 0.000000 0.000000 0.000000 0.000000 0.000000 10.000000 
planeLockWeightCenter 0.000000 0.000000 0.000000 0.000000 0.000000 0.000000 10.000000 
Rear_Toe1_02 0.000000 0.000000 0.000000 0.000000 0.000000 0.000000 10.000000 
Rear_Toe1_03 0.000000 0.000000 0.000000 0.000000 0.000000 0.000000 10.000000 
Rear_Toe2_02 0.000000 0.000000 0.000000 0.000000 0.000000 0.000000 10.000000 
Rear_Toe2_03 0.000000 0.000000 0.000000 0.000000 0.000000 0.000000 10.000000 
Rear_Toe3_02 0.000000 0.000000 0.000000 0.000000 0.000000 0.000000 10.000000 
Rear_Toe3_03 0.000000 0.000000 0.000000 0.000000 0.000000 0.000000 10.000000 
Back_Bone 0.000000 0.000000 0.000000 0.000000 0.000000 0.000000 10.000000 
Head 0.000000 0.000000 0.000000 0.000000 0.000000 0.000000 10.000000 
Motor_Bone 0.000000 0.000000 0.000000 0.000000 0.000000 0.000000 10.000000 
Ping_Mechanism 0.000000 0.000000 0.000000 0.000000 0.000000 0.000000 10.000000 
BN_LookIK 0.000000 0.000000 0.000000 0.000000 0.000000 0.000000 10.000000 
bottomMouth 0.000000 0.000000 0.000000 0.000000 0.000000 0.000000 10.000000 
L_Mouth01 0.000000 0.000000 0.000000 0.000000 0.000000 0.000000 10.000000 
L_mouthFront 0.000000 0.000000 0.000000 0.000000 0.000000 0.000000 10.000000 
mouthGun 0.000000 0.000000 0.000000 0.000000 0.000000 0.000000 10.000000 
R_Mouth01 0.000000 0.000000 0.000000 0.000000 0.000000 0.000000 10.000000 
R_mouthFront 0.000000 0.000000 0.000000 0.000000 0.000000 0.000000 10.000000 
TopMouth 0.000000 0.000000 0.000000 0.000000 0.000000 0.000000 10.000000 
weapon_bone 0.000000 0.000000 0.000000 0.000000 0.000000 0.000000 10.000000 
#Beginning of Data. Separated by tabs
#Fr	Tx	Ty	Tz	Rx	Ry	Rz	SF
[Pinger_Root]
31 2405.247803 0.000212 0.000000 -0.000075 -0.000000 -0.000020 2405.247803
32 2438.425293 0.000215 0.000000 -0.000075 -0.000000 -0.000020 2438.425293
33 2464.839355 0.000217 0.000000 -0.000075 -0.000000 -0.000020 2464.839355
[Pelvis]
31 257.115326 1240.552246 4538.638184 28.800488 -77.821808 -36.100788 4712.145508
32 263.441986 1241.386475 4419.823242 20.794012 -80.723564 -26.699284 4598.399414
33 271.549377 1241.779541 4323.153809 6.067696 -83.898415 -10.858650 4506.153320
[L_Hip]
31 5.766392 125.831482 872.656799 -178.253311 -81.787712 87.381248 881.701050
32 5.766392 125.831482 872.656799 -178.253311 -81.787758 87.381340 881.701050
33 5.766392 125.831482 872.656799 -178.253311 -81.787758 87.381340 881.701050
[R_Hip]
31 5.765438 125.836372 -872.654907 -1.746713 81.787666 87.381149 881.699829
32 5.765438 125.836372 -872.654907 -1.746690 81.787712 87.381248 881.699829
33 5.765438 125.836372 -872.654907 -1.746690 81.787712 87.381248 881.699829
[Rear_Leg01]
31 -192.298416 -925.602966 -0.001907 179.235733 -12.947139 -172.323624 945.367432
32 -192.298416 -925.602966 -0.001907 -178.389450 -16.303463 -175.444183 945.367432
33 -192.298416 -925.602966 -0.001907 -176.280334 -19.792099 -178.514145 945.367432
[Spine1]
31 290.604584 5.007505 0.000477 -2.996238 -0.308460 34.191383 290.647736
32 290.604584 5.007505 0.000477 -2.897192 1.667174 31.852526 290.647736
33 290.604584 5.007505 0.000477 -2.313750 4.078520 29.498539 290.647736
[L_Leg01]
31 761.932007 -0.002384 -0.069261 124.562431 -23.639072 -95.723259 761.932068
32 761.932007 -0.002384 -0.069261 130.559113 -29.982822 -94.266022 761.932068
33 761.932007 -0.002384 -0.069261 126.998215 -34.573936 -87.267883 761.932068
[L_Leg02]
31 1441.140503 -0.000954 -0.000715 -1.093172 0.223875 -97.130936 1441.140503
32 1441.140503 -0.000954 -0.000715 -0.022559 -0.015979 -105.294731 1441.140503
33 1441.140503 -0.000954 -0.000715 1.734926 -0.098001 -111.645134 1441.140503
[L_Leg03]
31 1686.963989 -0.000715 -0.000954 0.002313 -0.000400 109.597572 1686.963989
32 1686.963989 -0.000715 -0.000954 -0.014102 0.006516 113.580498 1686.963989
33 1686.963989 -0.000715 -0.000954 -0.036380 0.017176 120.511314 1686.963989
[L_Foot]
31 3041.570068 -30.715107 11.297464 -41.854996 9.859711 12.237341 3041.746094
32 3041.570068 -30.715107 11.297464 -49.043011 8.754978 8.306562 3041.746094
33 3041.570068 -30.715107 11.297464 -48.859055 8.733775 8.148871 3041.746094
[L_Toe1_01]
31 -188.216690 -224.732346 -21.137953 88.236206 0.199256 -118.227676 293.899567
32 -188.216690 -224.732346 -21.137953 88.233627 -0.301315 -125.176964 293.899567
33 -188.216690 -224.732346 -21.137953 88.350319 -0.893169 -132.749969 293.899567
[L_Toe2_01]
31 200.746536 -219.926590 148.838394 -77.403862 -16.897900 -45.280704 332.896027
32 200.746536 -219.926590 148.838394 -75.676468 -13.816184 -54.248970 332.896027
33 200.746536 -219.926590 148.838394 -74.051758 -9.345007 -65.077507 332.896027
[L_Toe3_01]
31 188.832520 -219.859131 -191.078659 -106.074028 18.691149 -46.665405 347.140900
32 188.832520 -219.859131 -191.078659 -108.232460 15.214580 -55.630047 347.140900
33 188.832520 -219.859131 -191.078659 -110.253754 10.413244 -66.407097 347.140900
[planeAlignerLeft]
31 -89.184265 -813.496033 6.915574 0.000000 -89.909348 -90.081337 818.399292
32 -79.857246 -812.319763 7.719720 0.000000 -89.909348 -90.084007 816.272156
33 -62.628948 -805.502075 7.026221 0.000000 -89.907219 -90.086662 807.963684
[L_Toe1_02]
31 413.761139 0.000477 0.000000 0.001411 -22.592726 0.001411 413.761139
32 413.761139 0.000477 0.000000 0.001386 -25.718594 0.001386 413.761139
33 413.761139 0.000477 0.000000 0.001411 -22.674170 0.001411 413.761139
[L_Toe1_03]
31 464.317322 0.000358 -0.000089 0.000838 31.135387 -0.003177 464.317322
32 464.317322 0.000358 -0.000089 0.004592 60.384693 0.004592 464.317322
33 464.317322 0.000358 -0.000089 0.012760 79.445366 0.012760 464.317322
[L_Toe2_02]
31 342.235809 -0.000477 0.000238 0.004685 -80.820976 0.004685 342.235809
32 342.235809 -0.000477 0.000238 0.004685 -80.889084 0.004685 342.235809
33 342.235809 -0.000477 0.000238 0.004687 -80.279655 0.004687 342.235809
[L_Toe2_03]
31 420.210846 -0.000715 0.000000 179.992477 54.507782 179.999832 420.210846
32 420.210846 -0.000715 0.000000 179.992340 55.925392 179.999649 420.210846
33 420.210846 -0.000715 0.000000 -179.999390 62.397903 -179.995789 420.210846
[L_Toe3_02]
31 329.270111 0.000954 0.000000 0.004676 -84.312523 0.004676 329.270111
32 329.270111 0.000954 0.000000 0.004676 -84.365875 0.004676 329.270111
33 329.270111 0.000954 0.000000 0.004677 -83.773224 0.004677 329.270111
[L_Toe3_03]
31 439.137451 -0.001907 0.000954 179.992630 52.784218 -180.000000 439.137451
32 439.137451 -0.001907 0.000954 179.992493 54.340916 179.999847 439.137451
33 439.137451 -0.001907 0.000954 179.991745 60.762840 179.998962 439.137451
[planeLockWeightLeft]
31 104.002136 0.000000 -0.000153 -0.011826 -0.004376 0.005620 104.002129
32 0.000790 -0.000153 -0.000610 -0.011826 -0.004376 0.005620 0.001010
33 0.000019 -0.000172 -0.000563 -0.011826 -0.004376 0.005620 0.000589
[R_Leg01]
31 761.455627 -0.001907 -0.000358 101.282372 -46.637157 54.258518 761.455688
32 761.455627 -0.001907 -0.000358 108.821938 -51.637070 49.291882 761.455688
33 761.455627 -0.001907 -0.000358 115.808563 -53.540409 45.612110 761.455688
[R_Leg02]
31 1441.140625 0.000000 -0.000238 -0.324309 0.005960 -138.072464 1441.140625
32 1441.140625 0.000000 -0.000238 -0.408752 0.018823 -143.402603 1441.140625
33 1441.140625 0.000000 -0.000238 -0.467280 0.022060 -146.028671 1441.140625
[R_Leg03]
31 1686.963989 0.000954 0.001431 -0.007508 0.004707 107.685776 1686.963989
32 1686.963989 0.000954 0.001431 -0.011509 0.001738 107.170372 1686.963989
33 1686.963989 0.000954 0.001431 -0.007498 0.004724 107.942825 1686.963989
[R_Foot]
31 3041.560059 -30.531288 -11.204481 16.745583 -13.979199 58.148521 3041.734131
32 3041.560059 -30.531288 -11.204481 16.402353 -12.669840 60.257931 3041.734131
33 3041.560059 -30.531288 -11.204481 16.041998 -11.577150 61.453754 3041.734131
[planeAlignerRight]
31 -140.293015 -575.691162 -190.634750 0.000000 -89.911530 -90.062187 622.450073
32 -129.376312 -581.029114 -214.753540 0.000000 -89.903091 -90.064079 632.812866
33 -118.459572 -586.367126 -238.872284 0.000000 -89.899132 -90.065979 644.142090
[R_Toe1_01]
31 -188.383347 -224.864899 21.052242 90.937958 4.689309 -156.935654 294.101532
32 -188.383347 -224.864899 21.052242 90.946648 5.836442 -157.047882 294.101532
33 -188.383347 -224.864899 21.052242 90.953094 6.983590 -157.160172 294.101532
[R_Toe2_01]
31 200.637817 -220.002121 -148.787384 -100.967049 11.415484 -41.256592 332.857574
32 200.637817 -220.002121 -148.787384 -101.383804 12.538625 -42.035191 332.857574
33 200.637817 -220.002121 -148.787384 -101.861053 13.456967 -43.008888 332.857574
[R_Toe3_01]
31 188.606735 -220.092957 191.126343 -65.605652 -38.724159 -55.066532 347.192566
32 188.606735 -220.092957 191.126343 -66.676956 -37.501995 -53.943958 347.192566
33 188.606735 -220.092957 191.126343 -67.417747 -36.019138 -53.294777 347.192566
[planeLockWeightRight]
31 1000.000122 0.000000 -0.000338 -0.011823 -0.004379 -0.000027 1000.000122
32 1000.000122 0.000000 -0.000333 -0.011823 -0.004379 -0.000027 1000.000122
33 1000.000122 0.000000 -0.000328 -0.011823 -0.004379 -0.000027 1000.000122
[R_Toe1_02]
31 413.762085 0.000477 -0.000119 0.001389 -25.329264 0.001389 413.762085
32 413.762085 0.000477 -0.000119 0.001388 -25.487495 0.001388 413.762085
33 413.762085 0.000477 -0.000119 0.001387 -25.645720 0.001387 413.762085
[R_Toe1_03]
31 464.317810 0.000000 0.001088 0.002961 43.305805 0.002961 464.317810
32 464.317810 0.000000 0.001088 0.003090 45.343071 0.003090 464.317810
33 464.317810 0.000000 0.001088 0.003230 47.380966 0.003230 464.317810
[R_Toe2_02]
31 342.234741 -0.000954 0.000238 -0.002337 -77.569870 -0.002337 342.234741
32 342.234741 -0.000954 0.000238 -0.002339 -76.768593 -0.002339 342.234741
33 342.234741 -0.000954 0.000238 -0.002341 -75.967262 -0.002341 342.234741
[R_Toe2_03]
31 420.210846 0.000715 -0.000268 -179.993088 77.206573 -179.996613 420.210846
32 420.210846 0.000715 -0.000268 -179.991562 80.141640 -179.995056 420.210846
33 420.210846 0.000715 -0.000268 -179.987946 83.605453 -179.991440 420.210846
[R_Toe3_02]
31 329.270355 -0.000477 -0.000954 0.001176 -82.807724 0.001176 329.270355
32 329.270355 -0.000477 -0.000954 0.001176 -83.015373 0.001176 329.270355
33 329.270355 -0.000477 -0.000954 0.001176 -83.222977 0.001176 329.270355
[R_Toe3_03]
31 439.137939 0.000238 0.001431 -179.998932 66.796463 -179.995361 439.137939
32 439.137939 0.000238 0.001431 -179.999100 65.346878 -179.995529 439.137939
33 439.137939 0.000238 0.001431 -179.999191 64.584724 -179.995590 439.137939
[Rear_Leg02]
31 1162.777710 -0.029802 0.005960 21.106003 -9.824350 -164.140869 1162.777710
32 1162.777710 -0.029802 0.005960 21.356060 -9.051240 -166.044449 1162.777710
33 1162.777710 -0.029802 0.005960 21.384613 -8.698063 -166.721024 1162.777710
[Rear_Leg03]
31 607.192505 -0.013351 -0.073195 0.009962 -0.006076 79.116348 607.192505
32 607.192505 -0.013351 -0.073195 0.009948 -0.006099 79.377472 607.192505
33 607.192505 -0.013351 -0.073195 0.009934 -0.006121 79.638580 607.192505
[Rear_Leg04]
31 995.874512 -0.020504 -0.011921 -0.044271 -0.014322 98.302917 995.874573
32 995.874512 -0.020504 -0.011921 -0.044449 -0.013747 99.787102 995.874573
33 995.874512 -0.020504 -0.011921 -0.044524 -0.013501 100.419334 995.874573
[Rear_Foot]
31 3096.176270 -0.067472 -0.041425 -137.626480 54.744678 23.873993 3096.176270
32 3096.176270 -0.067472 -0.041425 -139.085739 53.762016 22.860065 3096.176270
33 3096.176270 -0.067472 -0.041425 -140.482452 52.765026 21.911135 3096.176270
[planeAlignerCenter]
31 12.461020 57.917866 -796.069153 0.001823 -0.001485 168.341293 798.270508
32 11.613776 62.278099 -786.739502 0.001804 -0.001507 169.762695 789.286072
33 10.766533 66.638321 -777.409912 0.001784 -0.001529 171.183441 780.335022
[Rear_Toe1_01]
31 0.653352 83.966492 -371.173737 -0.338798 27.629671 77.468956 380.553192
32 0.653352 83.966492 -371.173737 -0.297845 27.201057 79.051399 380.553192
33 0.653352 83.966492 -371.173737 -0.220406 26.619478 80.529961 380.553192
[Rear_Toe2_01]
31 178.200760 -294.826019 -362.060547 -2.410263 52.594662 -87.739525 499.765686
32 178.200760 -294.826019 -362.060547 -1.900949 52.073399 -85.479240 499.765686
33 178.200760 -294.826019 -362.060547 -1.430734 51.540043 -83.251472 499.765686
[Rear_Toe3_01]
31 -153.359680 -308.780914 -362.060852 -4.719573 52.784424 -130.164276 499.952881
32 -153.359680 -308.780914 -362.060852 -4.248071 52.221378 -128.038712 499.952881
33 -153.359680 -308.780914 -362.060852 -3.816252 51.647839 -125.946289 499.952881
[planeLockWeightCenter]
31 1000.000488 0.000496 -0.000095 -0.011814 -0.004373 -0.000015 1000.000488
32 1000.000488 0.000496 -0.000092 -0.011814 -0.004373 -0.000015 1000.000488
33 1000.000488 0.000496 -0.000089 -0.011814 -0.004373 -0.000015 1000.000488
[Rear_Toe1_02]
31 379.707825 0.194073 0.000477 -0.004349 -33.554916 0.003045 379.707855
32 379.707825 0.194073 0.000477 -0.004349 -33.553928 0.003045 379.707855
33 379.707825 0.194073 0.000477 -0.004349 -33.552948 0.003045 379.707855
[Rear_Toe1_03]
31 500.129700 0.165701 0.000119 -0.004828 68.263412 -0.001268 500.129761
32 500.129700 0.165701 0.000119 -0.004849 68.414413 -0.001289 500.129761
33 500.129700 0.165701 0.000119 -0.004870 68.565414 -0.001311 500.129761
[Rear_Toe2_02]
31 340.494507 0.000238 -0.000954 0.001179 -78.774086 0.001179 340.494507
32 340.494507 0.000238 -0.000954 0.001178 -79.739471 0.001178 340.494507
33 340.494507 0.000238 -0.000954 0.001178 -80.704918 0.001178 340.494507
[Rear_Toe2_03]
31 433.103577 0.000000 0.000238 0.026829 84.978119 0.026829 433.103546
32 433.103577 0.000000 0.000238 0.048082 87.200195 0.048082 433.103546
33 433.103577 0.000000 0.000238 0.231319 89.417511 0.231319 433.103546
[Rear_Toe3_02]
31 340.494141 -0.000358 -0.000477 0.001178 -80.052856 0.001178 340.494171
32 340.494141 -0.000358 -0.000477 0.001177 -80.940666 0.001177 340.494171
33 340.494141 -0.000358 -0.000477 0.001177 -81.828217 0.001177 340.494171
[Rear_Toe3_03]
31 433.103577 0.001431 -0.000238 0.003216 87.845413 0.005405 433.103546
32 433.103577 0.001431 -0.000238 0.000000 89.566597 0.002625 433.103546
33 433.103577 0.001431 -0.000238 -179.969803 88.711838 -179.966751 433.103546
[Back_Bone]
31 1312.175781 -701.934692 0.000954 -0.889938 0.611998 -86.292229 1488.125488
32 1312.175781 -701.934692 0.000954 -1.455277 1.389246 -87.399765 1488.125488
33 1312.175781 -701.934692 0.000954 -1.927890 1.940066 -87.843315 1488.125488
[Head]
31 1406.159424 809.709290 0.001431 4.739841 -13.985938 0.217882 1622.625488
32 1406.159424 809.709290 0.001431 4.613572 -13.866143 -0.109623 1622.625488
33 1406.159424 809.709290 0.001431 4.486660 -13.747048 -0.437237 1622.625488
[Motor_Bone]
31 1158.364380 -417.834747 0.000477 -1.440882 0.000167 -105.983208 1231.419434
32 1158.364380 -417.834747 0.000477 -1.029635 1.419330 -104.575363 1231.419434
33 1158.364380 -417.834747 0.000477 -0.583231 2.827924 -103.156067 1231.419434
[Ping_Mechanism]
31 1190.368652 -421.369568 52.982994 0.000103 -0.000053 82.120995 1263.858032
32 1201.379761 -428.871094 41.106087 0.000103 -0.000053 82.120995 1276.296753
33 1212.390869 -436.372620 29.229162 0.000103 -0.000053 82.120995 1288.862671
[BN_LookIK]
31 193.241119 1380.371704 -0.002861 0.000000 89.965736 -31.038179 1393.832153
32 193.241119 1380.371704 -0.002861 0.000000 89.965736 -31.038179 1393.832153
33 193.241119 1380.371704 -0.002861 0.000000 89.965736 -31.038179 1393.832153
[bottomMouth]
31 -435.092926 615.759399 -0.000954 -0.000022 0.000016 73.527184 753.966492
32 -435.092926 615.759399 -0.000954 -0.000022 0.000016 73.527184 753.966492
33 -435.092926 615.759399 -0.000954 -0.000022 0.000016 73.527184 753.966492
[L_Mouth01]
31 554.440979 7.658243 838.222046 150.204178 23.759130 109.605339 1005.027161
32 554.440979 7.658243 838.222046 150.204178 23.759130 109.605339 1005.027161
33 554.440979 7.658243 838.222046 150.204178 23.759130 109.605339 1005.027161
[L_mouthFront]
31 551.629089 934.514771 339.150421 0.000081 2.804060 79.119301 1136.941284
32 551.629089 934.514771 339.150421 0.000081 2.804060 79.119301 1136.941284
33 551.629089 934.514771 339.150421 0.000081 2.804060 79.119301 1136.941284
[mouthGun]
31 55.332661 1627.420898 0.000000 0.000023 0.000009 -11.038128 1628.361328
32 55.332661 1627.420898 0.000000 0.000023 0.000009 -11.038128 1628.361328
33 55.332661 1627.420898 0.000000 0.000023 0.000009 -11.038128 1628.361328
[R_Mouth01]
31 554.442383 7.659197 -838.223938 29.795891 -23.759109 109.605331 1005.029541
32 554.442383 7.659197 -838.223938 29.795891 -23.759109 109.605331 1005.029541
33 554.442383 7.659197 -838.223938 29.795891 -23.759109 109.605331 1005.029541
[R_mouthFront]
31 551.629089 934.514282 -339.151367 0.000029 -2.803930 79.119133 1136.941162
32 551.629089 934.514282 -339.151367 0.000029 -2.803930 79.119133 1136.941162
33 551.629089 934.514282 -339.151367 0.000029 -2.803930 79.119133 1136.941162
[TopMouth]
31 461.269867 -56.106091 -0.008583 -0.000059 -0.000268 92.025169 464.669525
32 461.269867 -56.106091 -0.008583 -0.000059 -0.000268 92.025169 464.669525
33 461.269867 -56.106091 -0.008583 -0.000059 -0.000268 92.025169 464.669525
[weapon_bone]
31 -987.239868 1448.372803 0.001431 0.000000 89.965736 -31.038221 1752.833740
32 -987.239868 1448.372803 0.001431 0.000000 89.965736 -31.038221 1752.833740
33 -987.239868 1448.372803 0.001431 0.000000 89.965736 -31.038221 1752.833740
